<svg xmlns="http://www.w3.org/2000/svg" width="14.496" height="16" viewBox="0 0 14.496 16">
    <path fill="#f02944"
          d="M233.416,147.014H220.381a.73.73,0,0,1,0-1.46h13.035a.73.73,0,0,1,0,1.46Zm-4.207-3.275a.73.73,0,0,0-.73-.73h-3.16a.73.73,0,0,0,0,1.46h3.16A.73.73,0,0,0,229.209,143.738Zm3.662,5.091v7.258a2.921,2.921,0,0,1-2.921,2.921h-6.1a2.921,2.921,0,0,1-2.921-2.921V148.83a.73.73,0,0,1,.73-.73h10.484A.73.73,0,0,1,232.871,148.83Zm-7.245,2.074a.73.73,0,1,0-1.46,0v5.164a.73.73,0,1,0,1.46,0Zm4.007,0a.73.73,0,0,0-1.46,0v5.164a.73.73,0,1,0,1.46,0Z"
          transform="translate(-219.651 -143.008)"/>
</svg>
