<?xml version="1.0" encoding="utf-8"?>
<!-- Generator: Adobe Illustrator 25.2.1, SVG Export Plug-In . SVG Version: 6.00 Build 0)  -->
<svg version="1.1" id="Layer_1" xmlns="http://www.w3.org/2000/svg" x="0px"
     y="0px"
     viewBox="0 0 300 100" style="enable-background:new 0 0 300 100;" xml:space="preserve">
<g id="Layer_2_1_">
	<g id="HORIZ_BLUE">
		<g id="LOGO_HORIZ_PRIMARY">
			<path id="WORDMARK" fill="#23A0E8" d="M284.1,67c-0.5,0-1,0-1.5,0c-2.8-0.2-5.5-0.6-8.2-1.3c-2.2-0.6-4.1-2.1-5.2-4.1
				c-1.1-2.1-1.3-4.5-0.5-6.7l0.1-0.4l0.4,0.1c4.1,2,8.5,3.2,13,3.6c1.7,0.2,3.3-0.2,4.8-1c1.1-0.7,1.8-1.8,1.8-3.1
				c0.1-3-3.5-4.1-7.7-5.4c-6.2-1.9-13.8-4.2-13.4-13.6c0.1-3.6,2-7,5.1-8.9c3.1-2.2,7.1-3.2,12-3c2.2,0.1,4.5,0.4,6.6,0.9
				c4.4,1,7.2,5.4,6.2,9.7c-0.1,0.3-0.2,0.7-0.3,1l-0.1,0.4l-0.4-0.2c-3.7-1.8-7.6-2.9-11.7-3.2c-1.5-0.1-3.1,0.2-4.5,0.9
				c-1.1,0.6-1.7,1.7-1.7,3c-0.1,2.8,3.2,3.8,7.4,5c6.3,1.9,14.2,4.3,13.7,13.9c-0.1,3.8-2.1,7.2-5.2,9.2
				C291.7,66,287.9,67.1,284.1,67z M141.4,27.8v3.6c0-5.5-5-6.8-6.6-6.8h-3.3v57.2h3.5c3.4,0,6.4-1.8,6.4-6.8V45.2
				c-0.1-6.5,5.2-11.8,11.7-11.8c6.5,0,11.9,5.2,11.9,11.6c0.1,6.5-5.2,11.8-11.7,11.8c-0.1,0-0.2,0-0.3,0c-5.6,0-7.1,5.7-7.8,7.9
				c2.7,1.3,5.8,2,8.8,1.9c10.8,0,20.8-8.2,20.8-22.1c0-10.4-8.5-20.9-20.8-20.9C149.5,23.6,145,25.1,141.4,27.8z M189.2,28V14.8
				c-0.2-3.6-3.1-6.4-6.7-6.4h-3.1v57.1h9.9V42.9c-0.1-5.2,4.1-9.5,9.4-9.5c0.1,0,0.1,0,0.2,0c5,0,9.6,4.3,9.6,9.2v22.9h3.3
				c4.2,0,6.6-2.3,6.6-6.8V41.5c0-6.7-5.5-17.9-17.8-17.9C196.3,23.6,192.3,25.2,189.2,28L189.2,28z M243.4,23.6
				c-12,0-21.7,9.6-21.7,21.6s9.7,21.6,21.7,21.6c12,0,21.7-9.6,21.7-21.6l0,0C265.2,33.2,255.5,23.6,243.4,23.6L243.4,23.6
				L243.4,23.6z M243.4,56.8c-6.5,0-11.8-5.3-11.8-11.7s5.3-11.7,11.8-11.7s11.8,5.3,11.8,11.7S249.9,56.8,243.4,56.8L243.4,56.8z"
            />
            <g id="ICON">
				<path fill="#30DCEE" d="M83.8,90.3c-2,0-3.7-1.6-3.7-3.7c0-0.9,0.3-1.8,0.9-2.5c19.9-22.3,19.9-55.8,0-78c-1.4-1.5-1.2-3.9,0.3-5.2
					c1.5-1.3,3.9-1.2,5.2,0.3l0,0c22.4,25,22.4,62.7,0,87.8C86,89.8,85,90.3,83.8,90.3z"/>
                <path fill="#00BDE7" d="M73.3,79.8c-0.9,0-1.7-0.3-2.4-0.9c-1.5-1.3-1.7-3.7-0.4-5.2l0,0c14.2-16.5,14.2-40.8,0-57.3
					c-1.3-1.5-1.1-3.9,0.4-5.2s3.9-1.1,5.2,0.4c16.6,19.3,16.6,47.6,0,66.8C75.4,79.3,74.4,79.8,73.3,79.8z"/>
                <g id="ICON-2">
					<path fill="#23A0E8"
                          d="M0,45L0,45c9.8,0,17.7,7.9,17.7,17.6l0,0v19.8C17.7,92.1,9.8,100,0,100l0,0l0,0l0,0C0,100,0,45,0,45z"/>
                    <path opacity="0.6" fill="#244D97" d="M0,61.6c3.7,8.1,9.9,14.7,17.7,18.9V45H0V61.6z"/>

                    <linearGradient id="SVGID_1_" gradientUnits="userSpaceOnUse" x1="-3.57" y1="1023.1321" x2="70.2737"
                                    y2="1023.1321" gradientTransform="matrix(1 0 0 1 3.57 -978)">
						<stop offset="0" style="stop-color:#4883EB"/>
                        <stop offset="1" style="stop-color:#00BDE7"/>
					</linearGradient>
                    <path fill="url(#SVGID_1_)" d="M36.9,8.5C16.5,8.5,0,24.9,0,45.1s16.5,36.7,36.9,36.7s36.9-16.4,36.9-36.7l0,0
						C73.8,24.9,57.3,8.5,36.9,8.5z M36.9,59.1c-7.8,0-14-6.3-14-14S29.2,31.2,37,31.2c7.7,0,14,6.3,14,13.9S44.7,59,36.9,59.1
						C36.9,59,36.9,59,36.9,59.1L36.9,59.1z"/>
				</g>
			</g>
		</g>
	</g>
</g>
</svg>
